# xmcd
#
# Track frame offsets:
# 183
# 15808
# 33208
# 62983
# 80183
# 99683
# 116920
# 133608
# 163033
# 177133
# 201295
# 215033
#
# Disc length: 3152 seconds
#
#
# Revision: 3
# Processed by: cddbd v1.5.2PL0 Copyright (c) Steve Scherf et al.
# Submitted via: FreeRIP 2.951 
#
DISCID=a90c4e0c
DTITLE=Grant and Forsyth - Country Love Songs vol.2
DYEAR=1991
DGENRE=Country
TTITLE0=He's Out Of My Life
TTITLE1=Don't Stay
TTITLE2=Medley
TTITLE3=Stay
TTITLE4=It Ain't Easy
TTITLE5=I Am ' I said
TTITLE6=Without You
TTITLE7=Medley
TTITLE8=Talking In Your Sleep
TTITLE9=Sweet Sixteen
TTITLE10=Turning Over New Leaves
TTITLE11=Soul On Fire
EXTD=GoodDay's verzameling
EXTT0=
EXTT1=
EXTT2=
EXTT3=
EXTT4=
EXTT5=
EXTT6=
EXTT7=
EXTT8=
EXTT9=
EXTT10=
EXTT11=
PLAYORDER=
